<svg width="604" height="422" viewBox="0 0 604 422" fill="none" xmlns="http://www.w3.org/2000/svg">
<path d="M571.781 262.814H354.817C353.698 262.813 352.626 262.33 351.835 261.473C351.044 260.615 350.599 259.452 350.598 258.239V14.5748C350.599 13.3619 351.044 12.1991 351.835 11.3414C352.626 10.4838 353.698 10.0014 354.817 10H571.781C572.899 10.0014 573.972 10.4838 574.763 11.3414C575.554 12.1991 575.999 13.3619 576 14.5748V258.239C575.999 259.452 575.554 260.615 574.763 261.473C573.972 262.33 572.899 262.813 571.781 262.814ZM354.817 11.595C354.088 11.5959 353.39 11.9102 352.874 12.4688C352.359 13.0274 352.07 13.7848 352.069 14.5748V258.239C352.07 259.029 352.359 259.787 352.874 260.345C353.39 260.904 354.088 261.218 354.817 261.219H571.781C572.509 261.218 573.208 260.904 573.723 260.345C574.238 259.787 574.528 259.029 574.529 258.239V14.5748C574.528 13.7848 574.238 13.0274 573.723 12.4688C573.208 11.9102 572.509 11.5959 571.781 11.595H354.817Z" fill="#B29E82"/>
<path d="M504.194 112.407C509.042 122.115 510.817 133.28 509.247 144.188C507.678 155.096 502.849 165.143 495.504 172.788C488.159 180.433 478.703 185.253 468.588 186.507C458.473 187.761 448.257 185.381 439.51 179.732C430.763 174.082 423.968 165.476 420.167 155.234C416.367 144.992 415.772 133.68 418.473 123.036C421.174 112.392 427.023 103.003 435.121 96.3117C443.218 89.62 453.118 85.9952 463.299 85.9937C463.668 85.9937 464.035 85.9996 464.402 86.0088L463.91 64.4714C463.706 64.4694 463.503 64.463 463.299 64.463C448.65 64.4676 434.415 69.7303 422.814 79.4298C411.214 89.1294 402.901 102.72 399.173 118.081C395.445 133.442 396.511 149.71 402.205 164.345C407.9 178.98 417.902 191.159 430.651 198.982C443.399 206.805 458.178 209.832 472.68 207.59C487.182 205.348 500.592 197.963 510.817 186.588C521.041 175.214 527.506 160.489 529.202 144.711C530.897 128.934 527.728 112.992 520.19 99.3723L504.194 112.407Z" fill="#E09300"/>
<path d="M504.194 112.407L520.19 99.3723C514.348 88.8177 506.106 80.066 496.252 73.9551C486.398 67.8441 475.262 64.5787 463.91 64.4714L464.402 86.0088C472.592 86.2169 480.585 88.7679 487.573 93.4036C494.561 98.0393 500.295 104.595 504.194 112.407Z" fill="#E6E6E6"/>
<path d="M497.073 198.162L496.252 199.044L519.551 224.546L520.372 223.664L497.073 198.162Z" fill="#3F3D56"/>
<path d="M512.031 42.0522L495.836 73.3617L496.844 73.9748L513.039 42.6652L512.031 42.0522Z" fill="#3F3D56"/>
<path d="M537.396 233.956H503.011C502.4 233.955 501.814 233.692 501.382 233.223C500.95 232.755 500.707 232.12 500.706 231.457V226.206C500.707 225.543 500.95 224.908 501.382 224.439C501.814 223.971 502.4 223.707 503.011 223.707H537.396C538.007 223.707 538.593 223.971 539.025 224.439C539.457 224.908 539.7 225.543 539.701 226.206V231.457C539.7 232.12 539.457 232.755 539.025 233.223C538.593 233.692 538.007 233.955 537.396 233.956Z" fill="#E09300"/>
<path d="M528.679 42.8058H494.294C493.683 42.805 493.097 42.5414 492.665 42.0729C492.233 41.6044 491.99 40.9692 491.989 40.3066V35.0553C491.99 34.3927 492.233 33.7575 492.665 33.2889C493.097 32.8204 493.683 32.5568 494.294 32.556H528.679C529.29 32.5568 529.876 32.8204 530.308 33.2889C530.74 33.7575 530.983 34.3927 530.984 35.0553V40.3066C530.983 40.9692 530.74 41.6044 530.308 42.0729C529.876 42.5415 529.29 42.805 528.679 42.8058Z" fill="#E6E6E6"/>
<path d="M315.915 126.336H70.7248C69.6592 126.335 68.6375 125.875 67.884 125.058C67.1305 124.241 66.7067 123.134 66.7054 121.978V15.1558C66.7067 14.0003 67.1305 12.8925 67.884 12.0755C68.6375 11.2584 69.6592 10.7988 70.7248 10.7975H315.915C316.981 10.7989 318.002 11.2585 318.756 12.0755C319.509 12.8926 319.933 14.0004 319.934 15.1558V121.978C319.933 123.134 319.509 124.241 318.756 125.058C318.002 125.875 316.981 126.335 315.915 126.336ZM70.7248 12.3926C70.0491 12.3934 69.4014 12.6847 68.9236 13.2028C68.4459 13.7208 68.1772 14.4232 68.1764 15.1558V121.978C68.1772 122.711 68.4459 123.413 68.9236 123.931C69.4014 124.449 70.0491 124.741 70.7248 124.741H315.915C316.591 124.74 317.239 124.449 317.716 123.931C318.194 123.413 318.463 122.711 318.463 121.978V15.1558C318.463 14.4232 318.194 13.7209 317.716 13.2028C317.238 12.6848 316.591 12.3934 315.915 12.3926H70.7248Z" fill="#B29E82"/>
<path d="M166.304 99.8254H142.547C141.94 99.8242 141.354 99.5894 140.891 99.1628C140.429 98.7362 140.121 98.1455 140.023 97.496C138.473 86.5827 138.473 75.4765 140.023 64.5632C140.121 63.9136 140.429 63.3229 140.891 62.8963C141.354 62.4698 141.94 62.2349 142.547 62.2337H166.304C166.688 62.2324 167.069 62.3263 167.415 62.5083C167.761 62.6903 168.065 62.9556 168.303 63.2839C168.545 63.617 168.715 64.0057 168.798 64.4205C168.882 64.8353 168.877 65.2653 168.784 65.6777C166.562 75.7704 166.562 86.2886 168.784 96.3814C168.877 96.7938 168.882 97.2238 168.798 97.6386C168.715 98.0534 168.545 98.4421 168.303 98.7752C168.065 99.1035 167.761 99.3688 167.415 99.5508C167.069 99.7328 166.688 99.8267 166.304 99.8254Z" fill="#E6E6E6"/>
<path d="M245.843 99.8254H222.087C221.48 99.8241 220.893 99.5893 220.431 99.1627C219.969 98.7361 219.661 98.1455 219.562 97.496C218.013 86.5827 218.013 75.4765 219.562 64.5632C219.661 63.9136 219.969 63.323 220.431 62.8964C220.893 62.4699 221.48 62.235 222.087 62.2337H245.843C246.228 62.2324 246.608 62.3263 246.955 62.5084C247.301 62.6905 247.605 62.9558 247.842 63.2843C248.085 63.6173 248.255 64.006 248.338 64.4207C248.421 64.8355 248.416 65.2654 248.323 65.6777C246.101 75.7705 246.101 86.2887 248.323 96.3815C248.416 96.7938 248.421 97.2237 248.338 97.6384C248.255 98.0532 248.085 98.4418 247.842 98.7748C247.605 99.1033 247.301 99.3687 246.955 99.5508C246.608 99.7328 246.228 99.8268 245.843 99.8254Z" fill="#E6E6E6"/>
<path d="M125.896 74.9002H102.14C101.533 74.899 100.946 74.6641 100.484 74.2375C100.021 73.8109 99.7137 73.2203 99.6155 72.5707C98.0659 61.6574 98.0659 50.5512 99.6155 39.6379C99.7137 38.9884 100.021 38.3977 100.484 37.9711C100.946 37.5445 101.533 37.3097 102.14 37.3085H125.896C126.281 37.3072 126.661 37.4011 127.008 37.5831C127.354 37.7651 127.658 38.0303 127.895 38.3587C128.138 38.6918 128.307 39.0805 128.391 39.4953C128.474 39.9101 128.469 40.34 128.376 40.7525C126.154 50.8452 126.154 61.3634 128.376 71.4562C128.469 71.8686 128.474 72.2986 128.391 72.7134C128.307 73.1282 128.138 73.5169 127.895 73.8499C127.658 74.1783 127.354 74.4436 127.008 74.6256C126.661 74.8076 126.281 74.9015 125.896 74.9002Z" fill="#E09300"/>
<path d="M206.236 74.9002H182.48C182.095 74.9015 181.715 74.8076 181.368 74.6255C181.022 74.4434 180.718 74.178 180.481 73.8496C180.238 73.5166 180.069 73.1279 179.985 72.7132C179.902 72.2984 179.907 71.8685 180 71.4562C182.222 61.3634 182.222 50.8452 180 40.7524C179.907 40.3401 179.902 39.9102 179.985 39.4955C180.069 39.0807 180.238 38.6921 180.481 38.3591C180.718 38.0306 181.022 37.7652 181.368 37.5832C181.715 37.4011 182.095 37.3071 182.48 37.3085H206.236C206.843 37.3097 207.43 37.5445 207.892 37.9711C208.355 38.3977 208.662 38.9884 208.76 39.6379C210.31 50.5512 210.31 61.6574 208.76 72.5707C208.662 73.2202 208.355 73.8109 207.892 74.2375C207.43 74.6641 206.843 74.8989 206.236 74.9002Z" fill="#E09300"/>
<path d="M284.5 74.9002H260.744C260.359 74.9015 259.979 74.8076 259.632 74.6255C259.286 74.4434 258.982 74.178 258.745 73.8496C258.502 73.5166 258.332 73.1279 258.249 72.7132C258.166 72.2984 258.171 71.8685 258.264 71.4562C260.486 61.3634 260.486 50.8452 258.264 40.7524C258.171 40.3401 258.166 39.9102 258.249 39.4955C258.332 39.0807 258.502 38.6921 258.745 38.3591C258.982 38.0306 259.286 37.7652 259.632 37.5832C259.979 37.4011 260.359 37.3071 260.744 37.3085H284.5C285.107 37.3098 285.694 37.5446 286.156 37.9712C286.618 38.3978 286.926 38.9884 287.024 39.6379C288.574 50.5512 288.574 61.6574 287.024 72.5707C286.926 73.2202 286.618 73.8109 286.156 74.2374C285.694 74.664 285.107 74.8989 284.5 74.9002Z" fill="#FF6584"/>
<path d="M152.226 264.781C151.094 264.531 150.027 264.015 149.099 263.269C148.171 262.523 147.405 261.566 146.855 260.464C146.305 259.363 145.985 258.144 145.916 256.894C145.848 255.643 146.033 254.392 146.459 253.228L113.851 177.311L130.393 172.269L157.272 248.571C159.029 249.477 160.418 251.049 161.177 252.991C161.935 254.932 162.011 257.108 161.389 259.106C160.767 261.104 159.491 262.785 157.802 263.831C156.113 264.877 154.129 265.215 152.226 264.781Z" fill="#A0616A"/>
<path d="M89.0783 385.923H98.0954L102.385 348.209H89.0768L89.0783 385.923Z" fill="#A0616A"/>
<path d="M115.485 395L87.1463 395.002L87.1458 383.129L104.536 383.128C107.44 383.128 110.225 384.379 112.278 386.605C114.331 388.832 115.485 391.852 115.485 395Z" fill="#2F2E41"/>
<path d="M42.209 375.383L50.4973 379.232L68.1359 346.397L55.9024 340.716L42.209 375.383Z" fill="#A0616A"/>
<path d="M63.1863 395.002L37.1362 382.903L41.4471 371.99L57.4324 379.414C60.1017 380.653 62.2076 382.992 63.2867 385.916C64.3657 388.839 64.3296 392.107 63.1863 395.002Z" fill="#2F2E41"/>
<path d="M111.372 141.695C121.349 141.695 129.437 132.925 129.437 122.107C129.437 111.289 121.349 102.519 111.372 102.519C101.395 102.519 93.3077 111.289 93.3077 122.107C93.3077 132.925 101.395 141.695 111.372 141.695Z" fill="#A0616A"/>
<path d="M98.3215 376.702L88.3952 374.652C87.5793 374.488 86.8505 373.996 86.3547 373.275C85.859 372.553 85.633 371.655 85.722 370.761L92.3043 301.17C92.3671 300.506 92.2085 299.84 91.8571 299.292C91.5058 298.744 90.9849 298.35 90.3891 298.183C89.7932 298.015 89.1618 298.085 88.6092 298.379C88.0567 298.673 87.6196 299.172 87.3772 299.786L58.6406 372.493C58.4679 372.93 58.2168 373.326 57.9021 373.656C57.5873 373.987 57.2151 374.247 56.807 374.42C56.3989 374.594 55.9631 374.678 55.5249 374.667C55.0867 374.657 54.6548 374.552 54.2542 374.359L46.1809 370.468C45.4272 370.108 44.8249 369.456 44.4926 368.639C44.1602 367.822 44.1219 366.899 44.3851 366.053L64.039 302.118C64.0943 301.939 64.1326 301.753 64.1532 301.565L70.5329 243.149C70.6025 242.511 70.8285 241.905 71.1876 241.394C71.5466 240.884 72.0254 240.487 72.574 240.245L92.718 231.372C93.3139 231.109 93.9675 231.041 94.5988 231.175C95.2302 231.308 95.8119 231.639 96.2728 232.125L121.699 258.971C122.095 259.387 122.389 259.905 122.552 260.476C122.716 261.047 122.745 261.654 122.637 262.241L102.187 373.876C102.036 374.69 101.63 375.422 101.038 375.948C100.446 376.475 99.7041 376.763 98.9385 376.765C98.7314 376.765 98.5249 376.744 98.3215 376.702Z" fill="#2F2E41"/>
<path d="M87.0051 246.37C83.486 241.952 80.9177 239.946 79.1612 240.262C77.4183 240.568 76.413 243.208 75.3483 246.003C73.8953 249.819 72.2484 254.143 68.1888 254.481C67.5568 254.599 66.9069 254.522 66.3136 254.258C65.7202 253.994 65.2072 253.555 64.8333 252.99C61.6401 247.84 69.2992 230.8 69.999 229.268L69.6398 148.671C69.6349 148.02 69.7934 147.381 70.0983 146.821C70.4032 146.261 70.843 145.802 71.3704 145.492C92.4178 133.185 120.837 154.589 126.321 159.006C126.759 159.358 127.111 159.823 127.343 160.358C127.575 160.894 127.682 161.484 127.652 162.075C126.991 175.574 123.69 243.678 123.69 258.869C123.69 263.075 122.352 265.747 119.714 266.811C118.823 267.154 117.883 267.321 116.938 267.305C108.887 267.305 95.702 257.289 87.0051 246.37Z" fill="#CCCCCC"/>
<path d="M116.378 207.234C115.938 206.924 115.573 206.503 115.314 206.008C115.055 205.513 114.909 204.958 114.89 204.389L113.464 168.289C113.376 166.067 114.021 163.883 115.282 162.128C116.543 160.374 118.339 159.163 120.349 158.713C122.358 158.263 124.449 158.603 126.248 159.672C128.047 160.741 129.437 162.469 130.169 164.548L140.839 194.867C141.151 195.756 141.124 196.743 140.766 197.612C140.408 198.48 139.746 199.159 138.926 199.499L119.377 207.589C118.887 207.795 118.359 207.87 117.837 207.808C117.315 207.746 116.815 207.549 116.378 207.234V207.234Z" fill="#CCCCCC"/>
<path d="M66.6971 263.641C65.7387 262.942 64.9333 262.023 64.3376 260.95C63.7419 259.877 63.3704 258.675 63.2494 257.43C63.1283 256.184 63.2606 254.925 63.637 253.741C64.0133 252.557 64.6245 251.476 65.4275 250.576L61.9779 166.913L79.0426 169.091L77.0617 250.742C78.3671 252.305 79.0985 254.333 79.1172 256.442C79.1359 258.551 78.4405 260.594 77.163 262.184C75.8854 263.774 74.1143 264.8 72.1854 265.069C70.2565 265.337 68.3037 264.829 66.6971 263.641H66.6971Z" fill="#A0616A"/>
<path d="M54.8475 189.191C54.5382 188.731 54.3354 188.197 54.2562 187.634C54.177 187.072 54.2238 186.497 54.3925 185.958L64.9304 151.678C65.5791 149.568 66.8992 147.776 68.6546 146.625C70.41 145.473 72.486 145.037 74.5111 145.393C76.5363 145.749 78.3784 146.875 79.7078 148.57C81.0373 150.264 81.7673 152.416 81.7672 154.641V187.092C81.7662 188.044 81.4171 188.956 80.7967 189.629C80.1762 190.302 79.3349 190.68 78.4574 190.681H57.5326C57.0076 190.684 56.4896 190.551 56.0224 190.291C55.5551 190.032 55.1521 189.654 54.8475 189.191Z" fill="#CCCCCC"/>
<path d="M99.7065 135.282C99.0302 135.857 98.1855 136.147 97.3275 136.101C96.4694 136.055 95.6556 135.674 95.0354 135.029C91.1638 131.105 87.8963 126.413 86.2427 120.979C84.3479 114.752 84.832 107.459 88.4606 102.213C91.528 97.7787 96.3833 95.2736 101.166 93.3152C103.033 92.4591 105.005 91.9037 107.02 91.6665C109.056 91.4376 111.095 92.0586 112.724 93.4031C113.517 94.0901 114.101 95.0204 114.4 96.0728C114.698 97.1251 114.697 98.2506 114.397 99.3023C116.85 96.8869 119.842 95.2085 123.077 94.4334C125.125 93.8448 127.289 93.942 129.285 94.7124C132.058 95.9491 133.86 98.97 134.69 102.095C135.376 104.478 135.432 107.023 134.85 109.439C134.552 110.64 134.024 111.76 133.301 112.726C132.578 113.692 131.676 114.483 130.654 115.047C128.116 116.344 125.105 115.854 122.452 114.868C119.799 113.881 117.283 112.425 114.539 111.795C111.795 111.166 108.626 111.533 106.684 113.728C105.317 115.273 104.779 117.448 104.289 119.523L101.746 130.316C101.465 131.889 100.928 133.394 100.159 134.762C100.031 134.956 99.8784 135.131 99.7065 135.282Z" fill="#2F2E41"/>
<path d="M172.968 291.028H149.211C148.604 291.027 148.017 290.792 147.555 290.366C147.093 289.939 146.785 289.348 146.687 288.699C145.137 277.786 145.137 266.679 146.687 255.766C146.785 255.117 147.093 254.526 147.555 254.099C148.017 253.673 148.604 253.438 149.211 253.437H172.968C173.353 253.435 173.733 253.529 174.079 253.711C174.426 253.893 174.729 254.159 174.967 254.487C175.21 254.82 175.379 255.209 175.462 255.624C175.546 256.038 175.541 256.468 175.448 256.881C173.226 266.973 173.226 277.492 175.448 287.584C175.541 287.997 175.546 288.427 175.462 288.841C175.379 289.256 175.21 289.645 174.967 289.978C174.729 290.306 174.426 290.572 174.079 290.754C173.733 290.936 173.353 291.03 172.968 291.028Z" fill="#E09300"/>
<path d="M133.15 396H14.7355C14.5404 396 14.3534 395.916 14.2154 395.766C14.0775 395.617 14 395.414 14 395.202C14 394.991 14.0775 394.788 14.2154 394.639C14.3534 394.489 14.5404 394.405 14.7355 394.405H133.15C133.345 394.405 133.532 394.489 133.67 394.639C133.808 394.788 133.885 394.991 133.885 395.202C133.885 395.414 133.808 395.617 133.67 395.766C133.532 395.916 133.345 396 133.15 396Z" fill="#3F3D56"/>
</svg>
